HIERARCHY
ROOT hip
{
	OFFSET 0.000000 0.000000 0.000000 
	CHANNELS 6 Xposition Yposition Zposition Xrotation Zrotation Yrotation
	JOINT abdomen
	{
		OFFSET 0.000000 3.402643 0.000000 
		CHANNELS 3 Xrotation Zrotation Yrotation
		JOINT chest
		{
			OFFSET 0.000000 8.438565 -0.680529 
			CHANNELS 3 Xrotation Zrotation Yrotation
			JOINT neck
			{
				OFFSET 0.000000 10.207942 -0.272212 
				CHANNELS 3 Xrotation Zrotation Yrotation
				JOINT head
				{
					OFFSET 0.000000 3.130431 0.000000 
					CHANNELS 3 Xrotation Zrotation Yrotation
					End Site
					{
						OFFSET 0.000000 3.130435 0.000000 
					}
				}
			}
			JOINT lCollar
			{
				OFFSET 3.470700 6.669187 -0.816635 
				CHANNELS 3 Yrotation Zrotation Xrotation
				JOINT lShldr
				{
					OFFSET 3.198488 0.000000 0.000000 
					CHANNELS 3 Zrotation Yrotation Xrotation
					JOINT lForeArm
					{
						OFFSET 10.139888 0.000000 0.000000 
						CHANNELS 3 Yrotation Zrotation Xrotation
						JOINT lHand
						{
							OFFSET 8.370511 0.000000 0.000000 
							CHANNELS 3 Zrotation Yrotation Xrotation
							End Site
							{
								OFFSET 4.083176 0.000000 0.000000 
							}
						}
					}
				}
			}
			JOINT rCollar
			{
				OFFSET -3.470700 6.669187 -0.816635 
				CHANNELS 3 Yrotation Zrotation Xrotation
				JOINT rShldr
				{
					OFFSET -3.198488 0.000000 0.000000 
					CHANNELS 3 Zrotation Yrotation Xrotation
					JOINT rForeArm
					{
						OFFSET -10.139888 0.000000 0.000000 
						CHANNELS 3 Yrotation Zrotation Xrotation
						JOINT rHand
						{
							OFFSET -8.370511 0.000000 0.000000 
							CHANNELS 3 Zrotation Yrotation Xrotation
							End Site
							{
								OFFSET -4.083176 0.000000 0.000000 
							}
						}
					}
				}
			}
		}
	}
	JOINT lThigh
	{
		OFFSET 5.308129 -1.633274 1.361059 
		CHANNELS 3 Xrotation Zrotation Yrotation
		JOINT lShin
		{
			OFFSET -2.041588 -20.007561 0.000000 
			CHANNELS 3 Xrotation Zrotation Yrotation
			JOINT lFoot
			{
				OFFSET 0.000000 -19.190928 -1.224953 
				CHANNELS 3 Xrotation Yrotation Zrotation
				End Site
				{
					OFFSET 0.000000 -2.449906 4.627600 
				}
			}
		}
	}
	JOINT rThigh
	{
		OFFSET -5.308129 -1.633274 1.361059 
		CHANNELS 3 Xrotation Zrotation Yrotation
		JOINT rShin
		{
			OFFSET 2.041588 -20.007561 0.000000 
			CHANNELS 3 Xrotation Zrotation Yrotation
			JOINT rFoot
			{
				OFFSET 0.000000 -19.190928 -1.224953 
				CHANNELS 3 Xrotation Yrotation Zrotation
				End Site
				{
					OFFSET 0.000000 -2.449906 4.627600 
				}
			}
		}
	}
}
MOTION
Frames: 15
Frame Time: 0.033333
-0.038423 43.264484 0.314013 -1.552103 -6.218439 87.862488 0.000000 0.000000 0.000000 -1.142719 0.898259 6.671539 7.226615 -0.216059 -0.046374 -12.008372 -1.398535 -20.118753 13.538746 25.088261 18.270922 -104.873070 -8.068556 -1.570889 -37.180027 1.852230 52.516350 -14.905148 18.629669 44.355976 -15.717262 -24.345154 17.366930 88.950821 29.959753 76.740440 13.234936 -21.899866 4.832793 33.170387 3.397662 -6.226648 -0.031681 9.161613 20.287022 60.322803 8.357263 -0.756871 2.527986 -4.687942 -19.116903 -8.825989 4.120629 2.639846 19.780573 1.646089 1.121578 -9.376351 -12.279706 19.825903 
-0.151089 43.414768 0.464730 -1.041560 -6.356380 87.975945 0.000000 0.000000 0.000000 -0.869153 0.302700 6.538377 6.534782 -1.256903 -0.115681 -12.257296 -0.657038 -20.023079 16.913168 22.966429 17.280241 -101.401909 -3.889954 -3.669425 -40.308456 0.133885 65.178970 -23.490784 19.865589 40.559368 -14.669983 -30.000000 16.043472 92.126091 33.936306 77.498878 18.025219 -24.110432 8.957844 33.460484 5.453361 -5.332690 -5.574946 9.300582 20.114544 66.677200 10.170302 -0.565221 5.976197 -2.717676 -18.083288 -6.316453 3.837430 2.473031 17.714733 1.431952 0.893896 -9.834229 -11.484762 19.562004 
-0.330072 43.650314 0.516148 0.039292 -6.201170 87.162697 0.000000 0.000000 0.000000 -0.126960 -0.595702 6.319680 5.797447 -2.693674 -0.226008 -12.441596 0.236970 -18.987665 20.717014 20.377136 16.473530 -97.634735 0.792597 -6.131293 -41.407902 -3.417147 64.501717 -19.562811 23.214016 41.867424 -13.030157 -30.000000 15.301958 94.023827 39.026745 77.326134 23.509836 -25.728189 11.824906 34.137165 7.436596 -4.427517 -10.301004 8.834775 19.645285 70.525192 10.062134 -0.703344 7.449228 0.288554 -17.709126 -3.280760 3.017692 2.144335 15.030524 1.119888 0.613699 -9.689955 -9.484265 19.806553 
-0.556595 43.937222 0.487009 1.639709 -5.954610 86.011398 0.000000 0.000000 0.000000 0.674236 -1.992050 6.001627 5.188332 -3.980250 -0.313986 -12.541922 0.919928 -17.689730 24.069880 17.988794 16.062426 -94.417595 5.457142 -8.486254 -40.825470 -7.538713 54.422512 -6.118804 25.169371 48.284882 -11.707746 -30.000000 14.820104 94.122810 44.685654 76.093987 28.608740 -26.401148 11.927270 34.824745 8.921165 -3.764621 -14.380797 7.700733 18.911100 71.152229 8.586253 -1.051643 8.066982 3.597385 -17.604872 -0.087500 1.438221 1.591719 12.031767 1.069205 0.376619 -9.647573 -7.077104 19.716160 
-0.774941 44.218151 0.435107 3.178761 -5.509141 84.908897 0.000000 0.000000 0.000000 1.545764 -3.446014 5.658599 4.734007 -4.881318 -0.375331 -12.653957 1.483542 -16.504599 26.605570 16.095755 15.968877 -92.034332 9.443873 -10.494740 -40.608658 -11.098251 44.778168 5.833526 23.518936 53.793129 -11.003915 -30.000000 14.328670 92.234871 49.955364 73.840340 32.553150 -26.539663 9.467236 35.088608 9.813496 -3.401487 -17.378565 6.519721 18.244818 69.103371 6.623694 -1.435375 8.515747 6.488914 -17.616087 3.171568 -0.234052 1.013098 9.031182 1.160563 0.160925 -9.456868 -5.057786 19.945059 
-0.972571 44.461033 0.377072 4.617656 -5.061728 84.015411 0.000000 0.000000 0.000000 2.323146 -4.956881 5.316642 4.423573 -5.345450 -0.412939 -12.698208 1.928980 -15.478426 28.368559 14.878621 15.952298 -90.514023 12.644562 -11.993931 -41.177559 -13.287513 39.508183 12.372090 21.576189 56.262417 -10.760997 -30.000000 13.805093 88.565620 54.278965 70.692719 35.422821 -26.597235 5.490718 35.162792 10.166076 -3.279451 -19.305101 5.282233 17.625586 64.569153 4.467000 -1.765092 8.643601 8.630242 -17.540922 6.329777 -1.950127 0.423613 6.048472 1.442682 -0.022141 -9.221446 -3.621744 20.120832 
-1.175760 44.645897 0.328101 5.723761 -4.858585 83.194519 0.000000 0.000000 0.000000 2.779913 -6.193932 5.041273 4.169732 -5.515725 -0.420610 -12.662555 2.175213 -14.459373 29.552597 14.108768 15.959652 -89.628464 15.188466 -13.049875 -42.244373 -14.124998 38.563759 14.093743 21.339787 56.923576 -10.714159 -30.000000 13.335142 83.055061 57.737507 66.469017 37.655849 -26.777962 1.275916 35.406868 10.384125 -3.200523 -20.490898 4.282794 17.198242 57.867458 2.358437 -2.011837 8.370621 10.008546 -17.472555 9.057302 -3.308377 -0.022928 3.459041 1.723668 -0.159742 -9.271649 -2.566528 20.245886 
-1.384849 44.753613 0.303360 6.274338 -5.038157 82.278389 0.000000 0.000000 0.000000 2.852333 -6.837302 4.903222 3.934825 -5.599644 -0.432395 -12.586171 2.294735 -13.418260 30.294952 13.375856 16.123838 -88.990746 16.947962 -13.881887 -43.323696 -14.107689 40.132580 12.254179 22.517799 56.459362 -10.602874 -30.000000 13.141219 76.587143 60.414341 61.629848 39.168018 -27.007523 -2.303593 35.726280 10.905782 -3.007643 -21.126152 3.843933 16.982862 49.669281 0.298836 -2.103675 7.727007 10.725049 -17.516666 11.040379 -4.002156 -0.255547 1.686142 1.850982 -0.254492 -9.703933 -1.654532 20.454821 
-1.576127 44.756535 0.291328 6.310709 -5.707623 81.224571 0.000000 0.000000 0.000000 2.340746 -6.810772 4.926979 3.768599 -5.689895 -0.431622 -12.548084 2.359095 -12.386645 30.825155 12.634759 16.376818 -88.492241 17.948332 -14.483175 -44.068935 -13.756180 42.251984 7.972734 24.114861 54.956516 -10.070046 -30.000000 13.455852 70.603546 62.077179 57.197872 40.393024 -27.546736 -4.793766 35.981312 11.074927 -2.908372 -21.474787 4.062890 16.996405 41.109367 -1.595787 -2.131559 6.702366 10.911349 -17.390856 12.175581 -4.012931 -0.274076 0.652850 1.859979 -0.320482 -10.415991 -0.784257 20.626657 
-1.722786 44.644905 0.274844 5.908387 -6.595946 80.323692 0.000000 0.000000 0.000000 1.562014 -6.247696 5.064291 3.690100 -5.691860 -0.433543 -12.459987 2.351379 -11.432255 30.981400 11.911201 16.752893 -88.298515 18.094212 -14.662379 -44.453747 -12.900413 43.572639 2.945313 25.571415 52.875641 -9.334902 -30.000000 14.123403 67.217575 63.068909 54.585915 40.731079 -28.025240 -5.547292 36.375793 11.177222 -2.836783 -21.415932 4.501976 17.147770 32.795837 -3.061602 -1.980742 5.355234 10.131760 -17.174866 12.923610 -3.543606 -0.123305 0.194481 1.781103 -0.383195 -11.127883 -0.188324 21.098780 
-1.764593 44.478767 0.225322 5.496943 -6.727021 79.754395 0.000000 0.000000 0.000000 1.442759 -5.730617 5.177918 3.827611 -5.708997 -0.438719 -12.324040 2.408261 -10.676060 30.489992 10.962755 17.438364 -88.361519 17.231552 -14.437750 -44.371670 -11.293648 43.513779 -1.038264 26.527254 51.061932 -8.692039 -30.000000 14.879702 66.237709 63.490753 53.756634 40.681164 -28.413862 -4.210683 36.852180 11.045789 -2.864197 -20.152315 4.363163 17.259539 25.206228 -3.813575 -1.702181 4.029672 8.741085 -17.449417 14.605622 -3.339431 -0.072857 -0.067982 1.797954 -0.397322 -11.966788 -0.018166 22.051058 
-1.721069 44.285107 0.138648 5.168331 -6.331786 79.583900 0.000000 0.000000 0.000000 1.686929 -5.310211 5.263522 4.289621 -5.805581 -0.444994 -12.393797 2.489215 -10.281118 29.270844 9.858408 18.366608 -88.546989 15.337244 -13.925899 -43.566051 -9.279373 42.206406 -2.564012 26.808523 50.310005 -8.164948 -30.000000 15.750793 67.244476 63.256802 54.521488 40.250164 -28.674158 -0.994175 36.727261 10.722145 -3.031052 -18.609861 3.669760 17.219006 19.868107 -3.955380 -1.379815 2.866751 7.689898 -17.559315 16.948690 -3.436421 -0.149406 -0.252741 1.849656 -0.379017 -12.948419 -0.204383 23.179770 
-1.641185 44.056557 0.028101 4.802227 -6.053054 79.638657 0.000000 0.000000 0.000000 1.695215 -4.724504 5.387347 5.047365 -6.011427 -0.463412 -12.639378 2.557941 -10.153972 27.460775 8.250150 19.618523 -88.301926 12.290713 -13.563897 -42.385712 -7.331913 40.516705 -2.376461 26.702089 50.348625 -7.631745 -30.000000 16.842772 69.668083 62.148083 56.575413 39.335484 -28.937950 3.050688 35.829765 9.764392 -3.525973 -17.810970 3.056204 17.111496 17.679399 -3.967937 -1.219514 1.681897 7.736539 -17.040678 19.090237 -3.486684 -0.167491 -0.019486 1.829011 -0.385492 -14.049580 -0.663787 24.606731 
-1.524368 43.795067 -0.113469 4.428667 -6.007532 79.818275 0.000000 0.000000 0.000000 1.360693 -3.973492 5.549775 5.935083 -6.355610 -0.488520 -12.785200 2.509926 -10.230609 25.451698 6.526529 20.823080 -87.883636 8.450895 -13.278837 -41.140282 -5.388243 38.702927 -2.240434 25.222538 50.393940 -7.030433 -30.000000 18.143915 72.388206 59.687725 59.251148 37.952728 -29.412550 6.032322 34.368660 7.752512 -4.437233 -17.727114 2.613471 16.980085 18.093786 -3.850138 -1.243095 0.934203 7.896080 -15.853675 20.627611 -3.495163 -0.173176 1.150593 1.735519 -0.331512 -15.299295 -1.450820 26.213379 
-1.356453 43.533352 -0.295808 4.339829 -5.949811 79.978371 0.000000 0.000000 0.000000 0.919567 -3.378472 5.687511 6.737509 -6.824402 -0.529299 -12.763969 2.410223 -10.346900 23.750238 5.202690 21.668423 -87.542892 4.675608 -13.009839 -40.419998 -3.815113 36.333206 -3.189395 23.327635 49.948814 -6.162063 -30.000000 19.589422 74.211876 55.815754 61.716244 36.147556 -30.037848 5.733247 32.373650 4.771166 -5.618351 -17.870106 1.981922 16.778004 19.754234 -3.427461 -1.269805 0.870225 7.496483 -14.169010 21.548721 -3.818245 -0.285751 3.530413 1.667517 -0.176288 -16.574591 -2.412709 28.009199 
